<?xml version="1.0" encoding="UTF-8"?>
<!DOCTYPE svg PUBLIC "-//W3C//DTD SVG 1.1//EN" "http://www.w3.org/Graphics/SVG/1.1/DTD/svg11.dtd">
<!-- Creator: CorelDRAW X8 -->
<svg xmlns="http://www.w3.org/2000/svg" xml:space="preserve" width="120.008mm" height="120.008mm" version="1.1" style="shape-rendering:geometricPrecision; text-rendering:geometricPrecision; image-rendering:optimizeQuality; fill-rule:evenodd; clip-rule:evenodd"
viewBox="0 0 12001 12001"
 xmlns:xlink="http://www.w3.org/1999/xlink"
 aria-hidden="true"
 focusable="false"
 data-prefix="fas"
 data-icon="phone"
 role="img">
 <defs>
  <style type="text/css">
   <![CDATA[
    .str0 {stroke:white;stroke-width:592.66}
    .fil0 {fill:none}
   ]]>
  </style>
 </defs>
 <g id="Слой_x0020_1">
  <metadata id="CorelCorpID_0Corel-Layer"/>
  <path class="fil0 str0" d="M971 1098l2203 -508c239,-540 800,6 583,294l1016 2373c89,207 30,451 -146,593l-1284 1051c763,1625 2096,2976 3754,3754l1051 -1284c144,-176 386,-235 593,-146l2373 1017c227,99 352,345 297,584l-509 2204c-53,228 -256,394 -495,394 -5426,0 -9830,-4396 -9830,-9830 0,-238 163,-443 394,-496z"/>
 </g>
</svg>
